<svg width="132" height="134" viewBox="0 0 132 134" fill="none" xmlns="http://www.w3.org/2000/svg">
<path d="M23.1708 130.664C23.1072 130.927 23.0799 131.118 23.0799 131.254C23.0799 131.382 23.1526 131.472 23.2616 131.518C23.3706 131.563 23.5613 131.59 23.8065 131.609L23.7611 131.827C23.5976 131.808 23.3887 131.799 23.1344 131.799C22.8801 131.799 22.6349 131.799 22.3806 131.799C22.099 131.799 21.8356 131.799 21.5995 131.799C21.3633 131.799 21.1635 131.808 21 131.827L21.0545 131.609C21.2906 131.59 21.4814 131.563 21.6176 131.518C21.7539 131.472 21.8629 131.391 21.9355 131.254C22.0173 131.127 22.0899 130.927 22.1535 130.664L23.5885 125.26C23.6612 124.987 23.6885 124.797 23.6794 124.67C23.6612 124.542 23.5976 124.452 23.4886 124.406C23.3796 124.361 23.198 124.333 22.9528 124.324L23.0073 124.106C23.1526 124.106 23.3524 124.125 23.5976 124.125C23.8429 124.125 24.1063 124.134 24.3969 124.134C24.6512 124.134 24.9055 124.134 25.1508 124.125C25.396 124.115 25.614 124.106 25.7866 124.106L25.7321 124.324C25.4868 124.324 25.2961 124.361 25.1508 124.406C25.0054 124.452 24.9055 124.542 24.8329 124.67C24.7602 124.797 24.6785 124.996 24.6058 125.26L23.1708 130.664Z" fill="#756770"/>
<path d="M27.4397 131.818H26.4951L27.803 127.14C27.8212 127.076 27.8484 126.986 27.8666 126.886C27.8848 126.786 27.8848 126.686 27.8666 126.595C27.8484 126.504 27.7758 126.468 27.6577 126.468C27.4942 126.468 27.3489 126.55 27.2217 126.722C27.0946 126.886 26.9493 127.176 26.8039 127.585L26.6586 127.985H26.4497L26.7222 127.185C26.8312 126.877 26.9583 126.65 27.1127 126.486C27.2671 126.323 27.4216 126.214 27.585 126.15C27.7485 126.086 27.9029 126.059 28.0482 126.059C28.2662 126.059 28.4206 126.105 28.5206 126.204C28.6114 126.304 28.6659 126.432 28.675 126.586C28.684 126.74 28.675 126.904 28.6386 127.085C28.6023 127.267 28.566 127.431 28.5206 127.585L27.4488 131.818H27.4397ZM30.5187 127.331C30.5732 127.176 30.6005 127.031 30.6186 126.895C30.6368 126.758 30.6186 126.64 30.5823 126.55C30.546 126.459 30.4552 126.413 30.3189 126.413C30.1191 126.413 29.892 126.541 29.6468 126.786C29.4016 127.031 29.1563 127.385 28.902 127.83C28.6477 128.275 28.4116 128.793 28.1754 129.392C27.9393 129.983 27.7394 130.619 27.5578 131.291L27.9211 129.547C28.2572 128.675 28.566 127.985 28.8566 127.476C29.1472 126.967 29.4379 126.604 29.7376 126.386C30.0283 126.168 30.3462 126.059 30.6822 126.059C30.9184 126.059 31.0819 126.114 31.1909 126.214C31.2998 126.323 31.3634 126.459 31.3816 126.622C31.3997 126.786 31.3998 126.967 31.3634 127.158C31.3271 127.349 31.2908 127.531 31.2453 127.703L30.1373 131.808H29.1563L30.5187 127.322V127.331ZM33.2435 127.331C33.3162 127.104 33.3525 126.895 33.3525 126.704C33.3525 126.513 33.2708 126.413 33.1164 126.413C32.8984 126.413 32.6713 126.541 32.4261 126.795C32.1899 127.049 31.9356 127.412 31.6813 127.876C31.427 128.348 31.1727 128.893 30.9274 129.52C30.6731 130.146 30.437 130.837 30.2008 131.6L30.4552 130.201C30.7367 129.447 31.0001 128.802 31.2363 128.275C31.4724 127.749 31.7086 127.322 31.9447 126.995C32.1809 126.668 32.417 126.432 32.6622 126.277C32.9075 126.123 33.1799 126.05 33.4706 126.05C33.7612 126.05 33.9792 126.141 34.0882 126.313C34.1972 126.486 34.2426 126.704 34.2245 126.949C34.2063 127.204 34.1609 127.449 34.0791 127.694L33.0255 130.873C32.9529 131.1 32.9256 131.263 32.9529 131.382C32.9801 131.5 33.0619 131.554 33.2072 131.554C33.3434 131.554 33.4797 131.481 33.6159 131.327C33.7522 131.173 33.8975 130.882 34.0428 130.446L34.1881 130.046H34.397L34.1245 130.846C34.0246 131.154 33.8975 131.382 33.7522 131.545C33.6068 131.709 33.4434 131.818 33.2799 131.881C33.1164 131.945 32.962 131.972 32.8076 131.972C32.6259 131.972 32.4806 131.945 32.3807 131.89C32.2717 131.836 32.1899 131.763 32.1354 131.681C32.0446 131.545 32.0174 131.372 32.0446 131.164C32.0719 130.955 32.1354 130.719 32.2172 130.446L33.2526 127.331H33.2435Z" fill="#756770"/>
<path d="M37.485 131.627C37.6576 131.627 37.8574 131.518 38.0845 131.291C38.3115 131.073 38.5386 130.773 38.7747 130.392C39.0109 130.01 39.2198 129.583 39.4196 129.102C39.6194 128.62 39.7738 128.121 39.8919 127.612L39.7102 128.793C39.4378 129.565 39.1562 130.183 38.8837 130.655C38.6113 131.127 38.3297 131.463 38.0481 131.672C37.7666 131.881 37.4759 131.981 37.1853 131.981C36.8401 131.981 36.5858 131.854 36.4132 131.609C36.2407 131.363 36.1589 131.046 36.1589 130.664C36.1589 130.319 36.2134 129.937 36.3315 129.529C36.4496 129.12 36.6131 128.711 36.8129 128.303C37.0127 127.894 37.2579 127.521 37.5304 127.194C37.8029 126.858 38.0935 126.595 38.4114 126.386C38.7293 126.177 39.0472 126.077 39.3742 126.077C39.6285 126.077 39.8192 126.204 39.9555 126.45C40.0917 126.704 40.119 127.049 40.0372 127.503L39.9192 127.567C39.9736 127.185 39.9464 126.868 39.8465 126.631C39.7466 126.395 39.574 126.277 39.3469 126.277C39.1562 126.277 38.9564 126.368 38.7566 126.559C38.5568 126.749 38.3479 126.995 38.1571 127.313C37.9664 127.63 37.7938 127.985 37.6303 128.375C37.4759 128.766 37.3488 129.174 37.2579 129.592C37.1671 130.01 37.1217 130.41 37.1217 130.8C37.1217 131.109 37.158 131.327 37.2216 131.454C37.2852 131.581 37.3851 131.636 37.5032 131.636L37.485 131.627ZM40.228 126.214C40.4005 126.214 40.5731 126.195 40.7548 126.168C40.9273 126.15 41.0908 126.114 41.2361 126.059L39.8737 130.873C39.8556 130.937 39.8374 131.027 39.8102 131.127C39.7829 131.236 39.7829 131.327 39.8102 131.418C39.8374 131.509 39.9101 131.545 40.0372 131.545C40.1825 131.545 40.3279 131.463 40.4641 131.309C40.6003 131.155 40.7366 130.855 40.8819 130.437L41.0091 130.037H41.218L40.9455 130.837C40.8456 131.127 40.7184 131.354 40.5822 131.518C40.4369 131.681 40.2915 131.799 40.1371 131.863C39.9827 131.936 39.8374 131.963 39.6921 131.963C39.4105 131.963 39.2107 131.872 39.0926 131.681C39.0018 131.518 38.9746 131.318 39.02 131.1C39.0654 130.882 39.1108 130.655 39.1744 130.428L40.2461 126.214H40.228Z" fill="#756770"/>
<path d="M45.2053 129.365H45.4777C45.2143 129.52 44.9782 129.656 44.7511 129.774C44.5331 129.892 44.3515 130.001 44.2152 130.11C44.079 130.219 44.0063 130.31 44.0063 130.401C44.0063 130.473 44.0608 130.537 44.1608 130.6C44.2607 130.664 44.4332 130.719 44.6603 130.782L45.4596 130.991C45.6957 131.046 45.9046 131.118 46.0863 131.191C46.2679 131.264 46.4223 131.363 46.5313 131.481C46.6403 131.6 46.6948 131.754 46.6948 131.936C46.6948 132.117 46.6312 132.326 46.5132 132.553C46.3951 132.78 46.2043 132.998 45.9591 133.216C45.7048 133.425 45.3869 133.598 44.9873 133.743C44.5876 133.879 44.1063 133.952 43.534 133.952C43.1526 133.952 42.8347 133.916 42.5804 133.852C42.3261 133.779 42.1262 133.689 41.9991 133.561C41.8719 133.434 41.8083 133.298 41.8083 133.135C41.8083 133.016 41.8447 132.898 41.9083 132.771C41.9718 132.644 42.0717 132.517 42.1989 132.399C42.3261 132.281 42.4895 132.163 42.6803 132.063C42.871 131.954 43.0981 131.872 43.3615 131.799L43.4341 131.963C43.1617 132.099 42.98 132.254 42.8801 132.435C42.7802 132.608 42.7257 132.78 42.7257 132.962C42.7257 133.253 42.8256 133.462 43.0345 133.589C43.2343 133.716 43.4886 133.779 43.7884 133.779C44.0245 133.779 44.2788 133.743 44.5331 133.661C44.7875 133.589 45.0236 133.48 45.2416 133.353C45.4596 133.225 45.6321 133.08 45.7684 132.907C45.8955 132.744 45.9682 132.562 45.9682 132.381C45.9682 132.272 45.9319 132.199 45.8683 132.163C45.8047 132.126 45.6866 132.09 45.5232 132.054L43.8519 131.627C43.6794 131.581 43.5341 131.509 43.4251 131.4C43.3161 131.291 43.2616 131.155 43.2616 130.973C43.2616 130.828 43.3161 130.682 43.416 130.528C43.5159 130.373 43.7066 130.21 43.9973 130.019C44.2879 129.828 44.6875 129.62 45.2325 129.374L45.2053 129.365ZM45.8047 126.068C46.2316 126.068 46.5767 126.168 46.8492 126.359C47.1217 126.55 47.2488 126.858 47.2488 127.294C47.2488 127.64 47.1489 127.985 46.9582 128.33C46.7584 128.675 46.4859 128.957 46.1317 129.174C45.7775 129.392 45.3506 129.511 44.8692 129.511C44.4696 129.511 44.1335 129.411 43.861 129.22C43.5885 129.029 43.4523 128.729 43.4523 128.321C43.4523 128.121 43.4977 127.894 43.5795 127.64C43.6612 127.385 43.7974 127.131 43.9791 126.895C44.1608 126.659 44.406 126.459 44.7057 126.304C45.0054 126.15 45.3778 126.068 45.8229 126.068H45.8047ZM45.7593 126.259C45.5231 126.259 45.3324 126.323 45.1689 126.459C45.0054 126.595 44.8783 126.768 44.7693 126.967C44.6603 127.176 44.5876 127.394 44.5331 127.612C44.4786 127.83 44.4423 128.039 44.4151 128.23C44.3878 128.421 44.3787 128.548 44.3787 128.639C44.3787 128.875 44.4332 129.038 44.5331 129.138C44.6421 129.238 44.7784 129.293 44.9509 129.293C45.2234 129.293 45.4505 129.211 45.6231 129.038C45.7956 128.875 45.9228 128.666 46.0227 128.421C46.1135 128.175 46.1771 127.93 46.2134 127.676C46.2498 127.431 46.2588 127.222 46.2588 127.058C46.2588 126.813 46.2225 126.613 46.1589 126.468C46.0954 126.323 45.9591 126.25 45.7411 126.25L45.7593 126.259ZM46.5767 126.631L46.3769 126.559C46.4768 126.313 46.6494 126.095 46.9037 125.905C47.158 125.714 47.4123 125.623 47.6757 125.623C47.8665 125.623 48.0209 125.678 48.1299 125.778C48.2479 125.887 48.3024 126.05 48.3024 126.277C48.3024 126.477 48.2479 126.631 48.148 126.722C48.0481 126.813 47.9391 126.867 47.8211 126.867C47.703 126.867 47.594 126.831 47.485 126.749C47.376 126.677 47.3124 126.55 47.2943 126.386C47.2761 126.223 47.3215 126.005 47.4396 125.741L47.5849 125.778C47.2761 125.896 47.0581 126.014 46.931 126.141C46.8038 126.268 46.6766 126.432 46.5677 126.64L46.5767 126.631Z" fill="#756770"/>
<path d="M49.7648 129.347C50.1735 129.211 50.5368 129.075 50.8728 128.938C51.1998 128.802 51.4632 128.657 51.663 128.511C51.9264 128.303 52.1353 128.048 52.2806 127.749C52.4351 127.449 52.5077 127.122 52.5077 126.768C52.5077 126.559 52.4895 126.422 52.4623 126.368C52.4351 126.313 52.3896 126.277 52.3351 126.277C52.1535 126.277 51.9537 126.359 51.7448 126.513C51.5359 126.668 51.327 126.895 51.1271 127.176C50.9273 127.458 50.7366 127.776 50.564 128.13C50.3915 128.484 50.2552 128.866 50.1553 129.265C50.0554 129.665 50.0009 130.074 50.0009 130.473C50.0009 130.846 50.0736 131.109 50.2098 131.273C50.346 131.436 50.5277 131.518 50.7548 131.518C51.0182 131.518 51.2906 131.436 51.5813 131.282C51.8719 131.118 52.1535 130.837 52.4351 130.428L52.6076 130.519C52.4714 130.755 52.2897 130.991 52.0627 131.218C51.8356 131.445 51.5813 131.627 51.3088 131.772C51.0272 131.917 50.7366 131.981 50.4187 131.981C50.1281 131.981 49.8737 131.927 49.6558 131.808C49.4378 131.69 49.2743 131.518 49.1562 131.291C49.0381 131.064 48.9836 130.782 48.9836 130.446C48.9836 130.137 49.0381 129.783 49.1562 129.392C49.2743 129.002 49.4378 128.611 49.6558 128.23C49.8737 127.848 50.1281 127.485 50.4278 127.158C50.7275 126.831 51.0545 126.568 51.4178 126.377C51.7811 126.186 52.1717 126.086 52.5804 126.086C52.8074 126.086 52.9982 126.15 53.1526 126.268C53.307 126.386 53.3887 126.568 53.3887 126.804C53.3887 127.095 53.307 127.367 53.1344 127.612C52.9619 127.867 52.7348 128.094 52.4623 128.303C52.1807 128.511 51.881 128.693 51.554 128.857C51.2271 129.02 50.9092 129.156 50.5913 129.274C50.2825 129.392 50.0009 129.483 49.7648 129.556V129.374V129.347Z" fill="#756770"/>
<path d="M55.9681 131.818H55.0235L56.3314 127.14C56.3586 127.049 56.3859 126.958 56.4041 126.849C56.4222 126.74 56.4131 126.65 56.3859 126.577C56.3586 126.504 56.286 126.459 56.1679 126.459C56.0044 126.459 55.8682 126.541 55.741 126.695C55.6139 126.849 55.4776 127.14 55.3232 127.576L55.1779 127.976H54.969L55.2415 127.176C55.405 126.722 55.5957 126.413 55.8318 126.268C56.068 126.123 56.3041 126.05 56.5312 126.05C56.7492 126.05 56.9036 126.095 57.0035 126.195C57.1034 126.286 57.1579 126.413 57.167 126.559C57.1761 126.704 57.167 126.867 57.1307 127.049C57.0943 127.231 57.058 127.403 57.0126 127.576L55.9408 131.808L55.9681 131.818ZM56.4676 129.547C56.722 128.893 56.9672 128.348 57.2124 127.903C57.4486 127.458 57.6847 127.104 57.9209 126.831C58.157 126.559 58.3932 126.359 58.6384 126.241C58.8836 126.123 59.1379 126.059 59.3923 126.059C59.7374 126.059 59.9645 126.141 60.0916 126.304C60.2188 126.468 60.2733 126.677 60.2642 126.922C60.246 127.176 60.2006 127.431 60.1098 127.703L59.0562 130.882C58.9926 131.082 58.9654 131.236 58.9744 131.363C58.9835 131.491 59.0744 131.554 59.2288 131.554C59.365 131.554 59.5012 131.481 59.6375 131.327C59.7737 131.173 59.919 130.882 60.0644 130.446L60.2097 130.046H60.4186L60.1461 130.846C60.0462 131.154 59.919 131.382 59.7737 131.545C59.6284 131.709 59.4649 131.818 59.3014 131.881C59.1379 131.945 58.9835 131.972 58.8291 131.972C58.6566 131.972 58.5112 131.945 58.4022 131.881C58.2932 131.827 58.2024 131.745 58.1479 131.654C58.0662 131.527 58.0389 131.354 58.0753 131.145C58.1025 130.937 58.1661 130.7 58.2478 130.446L59.2833 127.331C59.3196 127.231 59.3468 127.104 59.3741 126.967C59.4013 126.822 59.3922 126.695 59.3559 126.586C59.3196 126.477 59.2106 126.413 59.038 126.413C58.8655 126.413 58.6747 126.486 58.484 126.64C58.2842 126.795 58.0843 127.013 57.8754 127.285C57.6665 127.567 57.4576 127.903 57.2578 128.284C57.058 128.675 56.8582 129.102 56.6765 129.574C56.4949 130.046 56.3223 130.546 56.1679 131.073L56.4858 129.547H56.4676Z" fill="#756770"/>
<path d="M70.5277 125.732C70.7275 125.732 70.8819 125.678 71.0091 125.578C71.1363 125.478 71.1998 125.323 71.1998 125.133C71.1998 124.887 71.0999 124.688 70.891 124.551C70.6821 124.415 70.4369 124.343 70.1372 124.343C69.8374 124.343 69.574 124.415 69.3379 124.551C69.1017 124.688 68.9201 124.887 68.7929 125.133C68.6658 125.378 68.5931 125.65 68.5931 125.968C68.5931 126.114 68.6113 126.268 68.6476 126.422C68.6839 126.577 68.7475 126.731 68.8293 126.877C68.9564 126.858 69.0927 126.84 69.2198 126.831C69.347 126.822 69.4469 126.813 69.5105 126.813C69.7739 126.813 69.901 126.886 69.901 127.04C69.901 127.122 69.8647 127.176 69.792 127.213C69.7194 127.249 69.6467 127.267 69.565 127.267C69.4287 127.267 69.2834 127.24 69.1472 127.176C69.0018 127.113 68.8928 127.067 68.8111 127.031C68.4841 127.122 68.1935 127.276 67.9483 127.494C67.6939 127.712 67.5032 127.957 67.3579 128.248C67.2126 128.539 67.149 128.848 67.149 129.184C67.149 129.62 67.2671 129.983 67.5032 130.283C67.7393 130.573 68.0663 130.8 68.475 130.955C68.8838 131.109 69.3561 131.182 69.8828 131.182C70.3007 131.182 70.7003 131.136 71.0636 131.036C71.4269 130.946 71.7448 130.809 72.0173 130.628C72.2898 130.446 72.4987 130.237 72.6531 129.983C72.8075 129.729 72.8801 129.456 72.8801 129.147C72.8801 128.875 72.8165 128.602 72.6803 128.321C72.5441 128.039 72.3261 127.812 72.0173 127.63L72.1717 127.558C72.4714 127.776 72.6985 128.03 72.862 128.312C73.0254 128.602 73.0981 128.92 73.0981 129.283C73.0981 129.647 73.0164 129.983 72.862 130.301C72.6985 130.628 72.4623 130.909 72.1535 131.164C71.8447 131.418 71.4632 131.609 71.0182 131.754C70.5731 131.899 70.0554 131.972 69.4741 131.972C68.8383 131.972 68.2843 131.881 67.812 131.69C67.3397 131.5 66.9764 131.245 66.7221 130.9C66.4678 130.555 66.3315 130.146 66.3315 129.665C66.3315 129.229 66.4314 128.829 66.6403 128.457C66.8493 128.094 67.1308 127.776 67.476 127.512C67.8302 127.249 68.2298 127.049 68.6658 126.931C68.4205 126.795 68.2298 126.613 68.1027 126.395C67.9755 126.177 67.9028 125.95 67.9028 125.705C67.9028 125.369 68.0118 125.087 68.2389 124.86C68.466 124.633 68.7384 124.461 69.0745 124.333C69.4015 124.215 69.7375 124.152 70.0645 124.152C70.4732 124.152 70.8002 124.243 71.0364 124.415C71.2816 124.588 71.3997 124.815 71.3997 125.105C71.3997 125.396 71.2998 125.587 71.0999 125.723C70.9001 125.859 70.6912 125.923 70.4732 125.923L70.4914 125.723L70.5277 125.732ZM71.8265 129.483C71.763 129.592 71.6721 129.701 71.5631 129.81C71.4542 129.919 71.3179 130.01 71.1453 130.092C70.9728 130.174 70.773 130.21 70.5277 130.21C70.3279 130.21 70.1463 130.174 69.9646 130.11C69.783 130.046 69.6376 129.937 69.5195 129.774C69.4015 129.62 69.347 129.402 69.347 129.138C69.347 128.684 69.5105 128.33 69.8374 128.057C70.1644 127.785 70.6004 127.549 71.1544 127.34C71.2816 127.285 71.4632 127.222 71.6994 127.14C71.9355 127.058 72.1808 126.967 72.4532 126.877C72.7257 126.777 72.9982 126.677 73.2616 126.568C73.5341 126.459 73.7702 126.359 73.97 126.259C74.188 126.159 74.3788 126.05 74.5513 125.932C74.7148 125.814 74.8511 125.687 74.951 125.541C75.0509 125.396 75.0963 125.233 75.0963 125.051C75.0963 124.778 74.9964 124.561 74.7875 124.379C74.5786 124.197 74.3243 124.115 74.0155 124.115C73.8247 124.115 73.7066 124.152 73.6703 124.215C73.7521 124.261 73.8066 124.315 73.8429 124.397C73.8792 124.479 73.8974 124.551 73.8974 124.633C73.8974 124.742 73.8611 124.842 73.7975 124.942C73.7248 125.033 73.6431 125.115 73.5341 125.169C73.4251 125.224 73.307 125.26 73.1889 125.26C73.0527 125.26 72.9346 125.224 72.8438 125.142C72.753 125.06 72.6985 124.951 72.6985 124.806C72.6985 124.642 72.753 124.506 72.862 124.388C72.971 124.27 73.0981 124.179 73.2434 124.115C73.3706 124.061 73.4977 124.016 73.634 123.997C73.7702 123.979 73.9065 123.961 74.0427 123.961C74.3152 123.961 74.5513 124.006 74.7512 124.088C74.951 124.179 75.1145 124.306 75.2325 124.488C75.3506 124.669 75.4051 124.906 75.4051 125.196C75.4051 125.432 75.3597 125.66 75.2689 125.868C75.178 126.077 75.0327 126.268 74.842 126.45C74.6512 126.631 74.3879 126.795 74.079 126.958C73.8792 127.049 73.6431 127.158 73.3615 127.267C73.0799 127.376 72.7802 127.494 72.4714 127.612C72.1626 127.73 71.8538 127.839 71.5631 127.948C71.2725 128.057 71.0182 128.148 70.8002 128.239C70.6549 128.293 70.4914 128.375 70.3097 128.466C70.1281 128.557 69.9737 128.675 69.8465 128.811C69.7194 128.947 69.6558 129.12 69.6558 129.32C69.6558 129.556 69.7466 129.729 69.9374 129.856C70.119 129.983 70.337 130.046 70.5822 130.046C70.8093 130.046 71 130.001 71.1453 129.919C71.2997 129.828 71.4178 129.738 71.5087 129.638C71.5995 129.538 71.6631 129.456 71.6903 129.411L71.8356 129.511L71.8265 129.483Z" fill="#756770"/>
<path d="M86.0046 126.068C86.0773 125.641 86.1046 125.296 86.0955 125.051C86.0864 124.806 85.9956 124.624 85.8321 124.515C85.6686 124.406 85.3961 124.361 85.0056 124.361H84.2063C83.961 124.361 83.7703 124.379 83.6341 124.424C83.4978 124.47 83.3888 124.551 83.3162 124.679C83.2435 124.806 83.1618 125.006 83.0891 125.269L81.6359 130.673C81.5632 130.937 81.536 131.127 81.5451 131.263C81.5542 131.391 81.6177 131.481 81.7358 131.518C81.8539 131.554 82.0355 131.581 82.2808 131.581H83.08C83.5342 131.581 83.8975 131.518 84.17 131.4C84.4424 131.273 84.6604 131.073 84.8421 130.791C85.0237 130.51 85.2054 130.128 85.3779 129.656H85.6323C85.5959 129.747 85.5596 129.865 85.5142 130.001C85.4688 130.137 85.4324 130.283 85.3961 130.437C85.3598 130.573 85.3144 130.773 85.2508 131.027C85.1872 131.282 85.1418 131.554 85.0964 131.827C84.724 131.808 84.3062 131.799 83.843 131.799C83.3798 131.799 82.962 131.799 82.5986 131.799H81.981C81.7267 131.799 81.4633 131.799 81.1727 131.799C80.882 131.799 80.5914 131.799 80.2917 131.808C79.9919 131.818 79.7104 131.808 79.4561 131.827L79.5105 131.609C79.7558 131.59 79.9465 131.563 80.0918 131.518C80.2372 131.472 80.3371 131.391 80.4097 131.254C80.4824 131.118 80.5641 130.927 80.6368 130.664L82.09 125.26C82.1627 124.987 82.1899 124.797 82.1809 124.67C82.1718 124.542 82.1082 124.452 81.9992 124.406C81.8902 124.361 81.7085 124.333 81.4633 124.324L81.5178 124.106C81.7903 124.106 82.0719 124.115 82.3716 124.125C82.6713 124.125 82.962 124.125 83.2526 124.134C83.5432 124.134 83.8157 124.134 84.061 124.134H84.6786C84.9965 124.134 85.3598 124.134 85.7594 124.134C86.1591 124.134 86.5223 124.125 86.8402 124.106C86.7494 124.361 86.6586 124.606 86.5859 124.851C86.5133 125.087 86.4588 125.269 86.4224 125.396C86.3861 125.523 86.3589 125.65 86.3316 125.768C86.3044 125.887 86.2862 125.986 86.268 126.068H86.0137H86.0046ZM82.0083 128.048L82.0718 127.83H83.961L83.8975 128.048H82.0083ZM83.1164 127.83C83.3525 127.83 83.5523 127.785 83.7067 127.685C83.8611 127.585 83.9883 127.458 84.0791 127.313C84.1699 127.167 84.2608 127.004 84.3244 126.84C84.3879 126.677 84.4515 126.531 84.506 126.395H84.7603C84.6241 126.813 84.5242 127.122 84.4697 127.34C84.4152 127.558 84.3607 127.758 84.3153 127.939C84.288 128.057 84.2517 128.184 84.2244 128.312C84.1881 128.448 84.1518 128.602 84.1154 128.793C84.0791 128.975 84.0246 129.211 83.9701 129.483H83.7158C83.734 129.311 83.7612 129.138 83.7794 128.966C83.7976 128.793 83.7976 128.639 83.7794 128.502C83.7521 128.366 83.6886 128.257 83.5796 128.166C83.4706 128.076 83.298 128.039 83.0528 128.039L83.1164 127.821V127.83Z" fill="#756770"/>
<path d="M88.2298 131.654C88.2843 131.681 88.3479 131.709 88.4206 131.727C88.4932 131.745 88.5931 131.754 88.7294 131.754C89.0473 131.754 89.3107 131.654 89.5196 131.463C89.7285 131.273 89.8284 130.991 89.8284 130.628C89.8284 130.401 89.783 130.183 89.7012 129.956C89.6195 129.738 89.4742 129.474 89.2562 129.184C89.0927 128.947 88.9292 128.711 88.7748 128.466C88.6204 128.221 88.5477 127.93 88.5477 127.603C88.5477 127.294 88.6204 127.022 88.7748 126.795C88.9292 126.568 89.129 126.386 89.3924 126.259C89.6467 126.132 89.9283 126.059 90.2371 126.059C90.446 126.059 90.6549 126.086 90.8547 126.132C91.0545 126.177 91.2271 126.277 91.3634 126.413C91.4996 126.55 91.5632 126.749 91.5632 127.004C91.5632 127.067 91.545 127.149 91.5178 127.24C91.4814 127.331 91.436 127.412 91.3634 127.476C91.2907 127.54 91.1908 127.576 91.0727 127.576C90.9546 127.576 90.8547 127.531 90.7639 127.449C90.6731 127.367 90.6367 127.258 90.6367 127.113C90.6367 126.967 90.664 126.858 90.7185 126.74C90.773 126.622 90.8456 126.504 90.9455 126.386C90.8093 126.295 90.6277 126.259 90.4006 126.259C90.1281 126.259 89.9101 126.35 89.7285 126.531C89.5468 126.713 89.456 126.967 89.456 127.294C89.456 127.458 89.4832 127.612 89.5287 127.739C89.5832 127.867 89.6558 128.003 89.7557 128.139C89.8556 128.275 89.9737 128.448 90.1099 128.666C90.2916 128.938 90.446 129.211 90.5641 129.465C90.6912 129.719 90.7457 129.992 90.7457 130.273C90.7457 130.61 90.664 130.9 90.4914 131.164C90.3188 131.418 90.0918 131.627 89.8102 131.772C89.5287 131.917 89.2108 131.99 88.8747 131.99C88.6295 131.99 88.3933 131.954 88.1663 131.881C87.9392 131.808 87.7575 131.69 87.6122 131.536C87.4669 131.382 87.4033 131.173 87.4033 130.909C87.4033 130.809 87.4306 130.7 87.4941 130.591C87.5577 130.482 87.6667 130.419 87.8302 130.419C88.0028 130.419 88.1299 130.491 88.2026 130.628C88.2752 130.764 88.3116 130.927 88.3116 131.1C88.3116 131.218 88.3025 131.318 88.2843 131.409C88.2662 131.5 88.248 131.581 88.2389 131.663L88.2298 131.654Z" fill="#756770"/>
<path d="M94.1606 130.891C94.0971 131.127 94.1152 131.3 94.206 131.409C94.3059 131.518 94.4331 131.563 94.5966 131.563C94.7601 131.563 94.9145 131.491 95.078 131.354C95.2415 131.218 95.405 130.918 95.5594 130.473L95.7138 130.046H95.9227L95.6956 130.737C95.5321 131.209 95.3323 131.536 95.078 131.709C94.8237 131.881 94.533 131.972 94.197 131.972C93.8972 131.972 93.6702 131.908 93.5158 131.781C93.3614 131.654 93.2705 131.472 93.2342 131.245C93.207 131.009 93.2342 130.746 93.325 130.446L95.0144 124.561C95.187 124.561 95.3595 124.542 95.5321 124.515C95.7047 124.497 95.8591 124.461 95.9953 124.406L94.1515 130.891H94.1606ZM96.9308 126.214L96.8945 126.432H93.5067L93.5612 126.214H96.9308Z" fill="#756770"/>
<path d="M99.3378 127.14C99.4922 126.686 99.4378 126.468 99.1834 126.468C99.02 126.468 98.8655 126.559 98.7384 126.74C98.6112 126.922 98.4659 127.204 98.3206 127.576L98.1662 127.976H97.9573L98.2388 127.176C98.3478 126.867 98.475 126.64 98.6294 126.477C98.7838 126.313 98.9473 126.204 99.1108 126.141C99.2833 126.077 99.4378 126.05 99.5831 126.05C99.8192 126.05 99.9827 126.095 100.092 126.195C100.201 126.286 100.264 126.413 100.292 126.568C100.31 126.722 100.31 126.886 100.273 127.067C100.237 127.249 100.192 127.422 100.128 127.585L98.9655 130.891C98.8928 131.1 98.8655 131.264 98.8928 131.391C98.92 131.509 99.0018 131.572 99.138 131.572C99.2833 131.572 99.4196 131.491 99.5558 131.336C99.6921 131.182 99.8283 130.882 99.9918 130.464L100.146 130.065H100.355L100.074 130.864C99.9736 131.145 99.8465 131.373 99.7011 131.536C99.5558 131.699 99.4014 131.818 99.2289 131.881C99.0654 131.954 98.8928 131.981 98.7293 131.981C98.4205 131.981 98.2025 131.908 98.0935 131.763C97.9845 131.618 97.9482 131.427 97.9754 131.2C98.0027 130.964 98.0663 130.719 98.1571 130.455L99.3197 127.149L99.3378 127.14ZM99.6739 124.234C99.7102 124.043 99.8101 123.879 99.9645 123.743C100.119 123.607 100.292 123.534 100.473 123.534C100.655 123.534 100.809 123.607 100.918 123.743C101.027 123.879 101.054 124.043 101.018 124.234C100.982 124.424 100.882 124.588 100.727 124.724C100.573 124.86 100.401 124.933 100.21 124.933C100.019 124.933 99.8828 124.86 99.7829 124.724C99.6739 124.588 99.6467 124.424 99.683 124.234H99.6739Z" fill="#756770"/>
<path d="M103.134 130.891C103.08 131.1 103.062 131.264 103.08 131.391C103.098 131.509 103.18 131.572 103.316 131.572C103.452 131.572 103.598 131.491 103.725 131.327C103.852 131.164 103.988 130.873 104.133 130.464L104.279 130.065H104.488L104.215 130.864C104.124 131.136 104.006 131.363 103.87 131.527C103.734 131.69 103.588 131.808 103.425 131.881C103.261 131.954 103.089 131.99 102.898 131.99C102.662 131.99 102.48 131.945 102.371 131.854C102.262 131.763 102.19 131.645 102.162 131.491C102.135 131.336 102.144 131.173 102.172 130.991C102.208 130.809 102.244 130.637 102.299 130.464L104.079 124.57C104.152 124.324 104.142 124.143 104.061 124.025C103.97 123.907 103.752 123.852 103.398 123.852L103.47 123.625C103.87 123.625 104.224 123.58 104.524 123.498C104.833 123.425 105.123 123.316 105.405 123.18L103.125 130.918L103.134 130.891Z" fill="#756770"/>
<path d="M106.368 130.264C106.368 129.947 106.413 129.592 106.495 129.22C106.577 128.847 106.713 128.466 106.886 128.094C107.058 127.721 107.276 127.385 107.521 127.076C107.776 126.768 108.066 126.522 108.402 126.341C108.738 126.159 109.111 126.059 109.511 126.059C109.965 126.059 110.319 126.195 110.591 126.477C110.864 126.758 111 127.185 111 127.767C111 128.085 110.955 128.439 110.873 128.811C110.782 129.193 110.655 129.565 110.482 129.937C110.31 130.31 110.092 130.646 109.847 130.955C109.601 131.263 109.302 131.509 108.966 131.69C108.63 131.872 108.257 131.972 107.857 131.972C107.403 131.972 107.049 131.827 106.777 131.545C106.504 131.264 106.368 130.837 106.368 130.255V130.264ZM109.456 126.286C109.22 126.286 109.002 126.377 108.784 126.568C108.566 126.749 108.375 127.004 108.194 127.322C108.012 127.64 107.857 127.994 107.721 128.384C107.585 128.775 107.485 129.184 107.412 129.601C107.34 130.019 107.303 130.428 107.303 130.809C107.303 131.136 107.358 131.372 107.458 131.527C107.567 131.681 107.721 131.754 107.921 131.754C108.157 131.754 108.375 131.663 108.593 131.472C108.811 131.291 109.002 131.036 109.184 130.719C109.365 130.401 109.52 130.046 109.656 129.656C109.792 129.265 109.892 128.857 109.965 128.439C110.037 128.021 110.074 127.612 110.074 127.222C110.074 126.886 110.019 126.649 109.919 126.495C109.819 126.35 109.665 126.268 109.447 126.268L109.456 126.286Z" fill="#756770"/>
<path d="M8.3882 116.314H7.60529L6.78638 114.019H2.59283L1.78292 116.314H1L4.25765 107.198H5.12156L8.3792 116.314H8.3882ZM6.54341 113.326L4.6986 108.134L2.8538 113.326H6.5524H6.54341Z" fill="#756770" stroke="#756770" stroke-width="0.3"/>
<path d="M13.3105 116.314V107.198H14.0485L19.3309 115.036V107.198H20.0598V116.314H19.3309L14.0485 108.476V116.314H13.3105Z" fill="#756770" stroke="#756770" stroke-width="0.3"/>
<path d="M25.6304 116.314V107.198H26.3683L31.6507 115.036V107.198H32.3796V116.314H31.6507L26.3683 108.476V116.314H25.6304Z" fill="#756770" stroke="#756770" stroke-width="0.3"/>
<path d="M37.9502 116.314V107.198H43.5836V107.909H38.6881V111.374H42.8277V112.084H38.6881V115.612H43.5836V116.323H37.9502V116.314Z" fill="#756770" stroke="#756770" stroke-width="0.3"/>
<path d="M54.7241 111.751C54.7241 108.962 56.146 107 58.8727 107C60.9964 107 62.3193 108.188 62.7963 110.024L62.0403 110.204C61.6444 108.674 60.5825 107.711 58.8727 107.711C56.6409 107.711 55.507 109.367 55.507 111.742C55.507 114.118 56.6319 115.774 58.8727 115.774C60.5915 115.774 61.6534 114.802 62.0403 113.281L62.7963 113.461C62.3193 115.297 60.9964 116.485 58.8727 116.485C56.146 116.485 54.7241 114.532 54.7241 111.733V111.751Z" fill="#756770" stroke="#756770" stroke-width="0.3"/>
<path d="M74.468 116.314H73.6851L72.8662 114.019H68.6727L67.8627 116.314H67.0798L70.3375 107.198H71.2014L74.459 116.314H74.468ZM72.6232 113.326L70.7784 108.134L68.9336 113.326H72.6322H72.6232Z" fill="#756770" stroke="#756770" stroke-width="0.3"/>
<path d="M82.6303 112.759H80.1195V116.314H79.3906V107.198H82.6933C84.5201 107.198 85.6269 108.278 85.6269 109.979C85.6269 111.419 84.817 112.417 83.4582 112.687L85.8609 116.314H84.997L82.6393 112.759H82.6303ZM80.1106 112.039H82.6843C84.0341 112.039 84.853 111.257 84.853 109.97C84.853 108.683 84.0341 107.9 82.6843 107.9H80.1106V112.039Z" fill="#756770" stroke="#756770" stroke-width="0.3"/>
<path d="M94.2841 112.759H91.7734V116.314H91.0444V107.198H94.3471C96.1739 107.198 97.2808 108.278 97.2808 109.979C97.2808 111.419 96.4709 112.417 95.112 112.687L97.5147 116.314H96.6508L94.2931 112.759H94.2841ZM91.7734 112.039H94.3471C95.6969 112.039 96.5158 111.257 96.5158 109.97C96.5158 108.683 95.6969 107.9 94.3471 107.9H91.7734V112.039Z" fill="#756770" stroke="#756770" stroke-width="0.3"/>
<path d="M102.203 111.751C102.203 108.962 103.625 107 106.352 107C109.078 107 110.491 108.953 110.491 111.751C110.491 114.55 109.069 116.503 106.352 116.503C103.634 116.503 102.203 114.55 102.203 111.751ZM109.708 111.751C109.708 109.376 108.583 107.72 106.343 107.72C104.102 107.72 102.995 109.376 102.977 111.751C102.959 114.127 104.102 115.783 106.343 115.783C108.583 115.783 109.708 114.127 109.708 111.751Z" fill="#756770" stroke="#756770" stroke-width="0.3"/>
<path d="M115.666 116.314V107.198H116.403V115.603H120.831V116.314H115.666Z" fill="#756770" stroke="#756770" stroke-width="0.3"/>
<path d="M125.834 116.314V107.198H126.572V115.603H131V116.314H125.834Z" fill="#756770" stroke="#756770" stroke-width="0.3"/>
<path d="M94.5935 35.3531C100.414 40.1645 105.741 44.4281 113.774 37.1896L114 36.9426L113.248 36.266C113.237 36.3626 113.141 36.3519 113.033 36.4271C109.479 39.4986 105.398 37.0178 100.275 33.9247C95.3345 30.8532 87.3979 26.3963 77.2812 28.4261C75.8313 28.7268 74.4244 29.1349 73.039 29.6074L62.2135 0.653351H50.9154V1.68435C52.129 1.68435 53.16 2.06023 52.6874 3.83227L45.7174 24.0013C45.5563 22.5944 45.2449 21.3701 44.869 20.2102C44.4072 18.7926 43.8272 17.4931 43.1614 16.2366C42.4848 14.98 41.733 13.7772 40.7986 12.6066C39.8643 11.4359 38.8225 10.2868 37.319 9.19136C36.7283 10.9634 36.7283 12.628 36.9646 14.2283C37.2116 15.8285 37.7486 17.3427 38.5004 18.7389C39.2521 20.135 40.2187 21.4131 41.4108 22.5085C42.5277 23.5073 43.8057 24.3557 45.4167 24.8712L44.8797 26.4392C44.2031 26.5788 43.6232 26.611 43.0003 26.6647C42.27 26.7292 41.4538 26.9118 40.7235 27.148C39.2307 27.6206 37.8775 28.3616 36.6531 29.2745C35.4396 30.1981 34.3549 31.3043 33.4957 32.6038C32.6473 33.914 31.9599 35.3746 31.7559 37.1896C33.5601 36.8889 34.9563 36.3304 36.2665 35.6968C37.566 35.0631 38.7366 34.3221 39.8428 33.4844C40.9382 32.6467 41.9693 31.7231 42.9358 30.6384C43.2151 30.3162 43.4836 29.994 43.7628 29.6504L41.9263 34.9557C38.3715 44.9543 31.1867 66.2511 49.8629 66.2511H50.3354C54.7387 97.7182 102.67 109.21 112.067 70.3965L111.079 70.0636C98.2987 117.962 39.7999 80.6099 62.9223 41.4747C64.1144 39.4234 65.4676 37.5869 66.9497 35.9867L76.5831 61.8586C77.1416 63.5339 76.5831 65.22 75.1762 65.22V66.2511H88.1604V65.22C86.571 65.22 85.54 63.0721 84.8956 61.386L73.5116 30.9177C74.8003 30.2625 76.1321 29.7578 77.496 29.4248C86.9683 27.2125 89.7499 31.4761 94.5613 35.3853M50.4106 56.2417C49.9488 59.3992 49.9166 62.417 50.2388 65.2738H49.8844C32.6902 65.2738 39.3273 45.3732 42.5922 35.9438L54.3628 2.12468L65.8435 32.9582C57.7673 37.9306 51.8712 46.0928 50.3999 56.2417" fill="#756770"/>
<path d="M42.0019 25.2041C40.1547 23.5287 38.2215 22.3259 36.2562 21.2089C34.2908 20.1242 32.2825 19.2006 30.242 18.3844C28.1907 17.5789 26.1072 16.8809 23.9271 16.3331C21.7362 15.8069 19.5023 15.3666 17 15.3344C18.5035 17.3319 20.3185 18.814 22.2195 20.1242C24.1311 21.413 26.1824 22.4655 28.2981 23.2924C30.4245 24.1301 32.6262 24.753 34.9137 25.1182C37.2012 25.4618 39.5425 25.6122 42.0019 25.1826" fill="#756770"/>
</svg>
