<svg width="295" height="286" viewBox="0 0 295 286" fill="none" xmlns="http://www.w3.org/2000/svg">
<path d="M16.2 281.36C14.256 281.36 12.432 281 10.728 280.28C9.048 279.536 7.572 278.516 6.3 277.22C5.052 275.9 4.068 274.364 3.348 272.612C2.652 270.86 2.304 268.964 2.304 266.924C2.304 264.908 2.652 263.036 3.348 261.308C4.068 259.556 5.052 258.032 6.3 256.736C7.572 255.416 9.048 254.384 10.728 253.64C12.408 252.896 14.232 252.524 16.2 252.524C18.048 252.524 19.632 252.764 20.952 253.244C22.296 253.724 23.64 254.516 24.984 255.62C25.176 255.764 25.32 255.92 25.416 256.088C25.536 256.232 25.608 256.388 25.632 256.556C25.68 256.7 25.704 256.88 25.704 257.096C25.704 257.552 25.536 257.936 25.2 258.248C24.888 258.536 24.504 258.704 24.048 258.752C23.592 258.776 23.148 258.62 22.716 258.284C21.828 257.516 20.904 256.928 19.944 256.52C19.008 256.112 17.76 255.908 16.2 255.908C14.784 255.908 13.452 256.196 12.204 256.772C10.956 257.348 9.852 258.14 8.892 259.148C7.956 260.156 7.224 261.332 6.696 262.676C6.168 263.996 5.904 265.412 5.904 266.924C5.904 268.46 6.168 269.9 6.696 271.244C7.224 272.564 7.956 273.728 8.892 274.736C9.852 275.744 10.956 276.536 12.204 277.112C13.452 277.664 14.784 277.94 16.2 277.94C17.424 277.94 18.576 277.736 19.656 277.328C20.76 276.896 21.816 276.308 22.824 275.564C23.256 275.252 23.676 275.12 24.084 275.168C24.516 275.192 24.876 275.36 25.164 275.672C25.452 275.96 25.596 276.368 25.596 276.896C25.596 277.136 25.548 277.376 25.452 277.616C25.356 277.832 25.212 278.036 25.02 278.228C23.724 279.26 22.332 280.04 20.844 280.568C19.38 281.096 17.832 281.36 16.2 281.36ZM35.9044 281C34.8484 281 33.9124 280.712 33.0964 280.136C32.2804 279.56 31.6444 278.78 31.1884 277.796C30.7324 276.788 30.5044 275.636 30.5044 274.34V254.684C30.5044 254.156 30.6724 253.724 31.0084 253.388C31.3444 253.052 31.7764 252.884 32.3044 252.884C32.8324 252.884 33.2644 253.052 33.6004 253.388C33.9364 253.724 34.1044 254.156 34.1044 254.684V274.34C34.1044 275.228 34.2724 275.96 34.6084 276.536C34.9444 277.112 35.3764 277.4 35.9044 277.4H36.8044C37.2844 277.4 37.6684 277.568 37.9564 277.904C38.2684 278.24 38.4244 278.672 38.4244 279.2C38.4244 279.728 38.1964 280.16 37.7404 280.496C37.2844 280.832 36.6964 281 35.9764 281H35.9044ZM50.1795 281.144C48.1875 281.144 46.4115 280.724 44.8515 279.884C43.3155 279.02 42.1035 277.844 41.2155 276.356C40.3515 274.844 39.9195 273.116 39.9195 271.172C39.9195 269.204 40.3275 267.476 41.1435 265.988C41.9835 264.476 43.1355 263.3 44.5995 262.46C46.0635 261.596 47.7435 261.164 49.6395 261.164C51.5115 261.164 53.1195 261.584 54.4635 262.424C55.8075 263.24 56.8275 264.38 57.5235 265.844C58.2435 267.284 58.6035 268.952 58.6035 270.848C58.6035 271.304 58.4475 271.688 58.1355 272C57.8235 272.288 57.4275 272.432 56.9475 272.432H42.4395V269.552H56.8395L55.3635 270.56C55.3395 269.36 55.0995 268.292 54.6435 267.356C54.1875 266.396 53.5395 265.64 52.6995 265.088C51.8595 264.536 50.8395 264.26 49.6395 264.26C48.2715 264.26 47.0955 264.56 46.1115 265.16C45.1515 265.76 44.4195 266.588 43.9155 267.644C43.4115 268.676 43.1595 269.852 43.1595 271.172C43.1595 272.492 43.4595 273.668 44.0595 274.7C44.6595 275.732 45.4875 276.548 46.5435 277.148C47.5995 277.748 48.8115 278.048 50.1795 278.048C50.9235 278.048 51.6795 277.916 52.4475 277.652C53.2395 277.364 53.8755 277.04 54.3555 276.68C54.7155 276.416 55.0995 276.284 55.5075 276.284C55.9395 276.26 56.3115 276.38 56.6235 276.644C57.0315 277.004 57.2475 277.4 57.2715 277.832C57.2955 278.264 57.1035 278.636 56.6955 278.948C55.8795 279.596 54.8595 280.124 53.6355 280.532C52.4355 280.94 51.2835 281.144 50.1795 281.144ZM70.7918 281.144C69.0398 281.144 67.4678 280.712 66.0758 279.848C64.6838 278.96 63.5798 277.772 62.7638 276.284C61.9718 274.772 61.5758 273.068 61.5758 271.172C61.5758 269.276 62.0078 267.572 62.8718 266.06C63.7598 264.548 64.9478 263.36 66.4358 262.496C67.9478 261.608 69.6398 261.164 71.5118 261.164C73.3838 261.164 75.0638 261.608 76.5518 262.496C78.0398 263.36 79.2158 264.548 80.0798 266.06C80.9678 267.572 81.4118 269.276 81.4118 271.172H80.0078C80.0078 273.068 79.5998 274.772 78.7838 276.284C77.9918 277.772 76.8998 278.96 75.5078 279.848C74.1158 280.712 72.5438 281.144 70.7918 281.144ZM71.5118 277.904C72.7358 277.904 73.8278 277.616 74.7878 277.04C75.7478 276.44 76.5038 275.636 77.0558 274.628C77.6078 273.596 77.8838 272.444 77.8838 271.172C77.8838 269.876 77.6078 268.724 77.0558 267.716C76.5038 266.684 75.7478 265.88 74.7878 265.304C73.8278 264.704 72.7358 264.404 71.5118 264.404C70.3118 264.404 69.2198 264.704 68.2358 265.304C67.2758 265.88 66.5078 266.684 65.9318 267.716C65.3798 268.724 65.1038 269.876 65.1038 271.172C65.1038 272.444 65.3798 273.596 65.9318 274.628C66.5078 275.636 67.2758 276.44 68.2358 277.04C69.2198 277.616 70.3118 277.904 71.5118 277.904ZM79.5758 281.036C79.0478 281.036 78.6038 280.868 78.2438 280.532C77.9078 280.172 77.7398 279.728 77.7398 279.2V273.692L78.4238 269.876L81.4118 271.172V279.2C81.4118 279.728 81.2318 280.172 80.8718 280.532C80.5358 280.868 80.1038 281.036 79.5758 281.036ZM103.509 281.036C102.981 281.036 102.537 280.868 102.177 280.532C101.841 280.172 101.673 279.728 101.673 279.2V270.344C101.673 268.976 101.421 267.86 100.917 266.996C100.413 266.132 99.7287 265.496 98.8647 265.088C98.0247 264.656 97.0527 264.44 95.9487 264.44C94.9407 264.44 94.0287 264.644 93.2127 265.052C92.3967 265.46 91.7487 266.012 91.2687 266.708C90.7887 267.38 90.5487 268.16 90.5487 269.048H88.2807C88.2807 267.536 88.6407 266.192 89.3607 265.016C90.1047 263.816 91.1127 262.868 92.3847 262.172C93.6567 261.476 95.0847 261.128 96.6687 261.128C98.3247 261.128 99.8007 261.488 101.097 262.208C102.417 262.904 103.449 263.936 104.193 265.304C104.961 266.672 105.345 268.352 105.345 270.344V279.2C105.345 279.728 105.165 280.172 104.805 280.532C104.469 280.868 104.037 281.036 103.509 281.036ZM88.7127 281.036C88.1847 281.036 87.7407 280.868 87.3807 280.532C87.0447 280.172 86.8767 279.728 86.8767 279.2V263.144C86.8767 262.592 87.0447 262.148 87.3807 261.812C87.7407 261.476 88.1847 261.308 88.7127 261.308C89.2647 261.308 89.7087 261.476 90.0447 261.812C90.3807 262.148 90.5487 262.592 90.5487 263.144V279.2C90.5487 279.728 90.3807 280.172 90.0447 280.532C89.7087 280.868 89.2647 281.036 88.7127 281.036ZM127.975 281.504C126.463 281.504 125.131 281.228 123.979 280.676C122.827 280.1 121.927 279.296 121.279 278.264C120.655 277.208 120.343 275.948 120.343 274.484C120.343 272.852 120.895 271.376 121.999 270.056C123.103 268.736 124.555 267.356 126.355 265.916L129.343 263.54C130.615 262.532 131.431 261.644 131.791 260.876C132.151 260.108 132.343 259.316 132.367 258.5C132.367 257.588 132.055 256.796 131.431 256.124C130.831 255.452 129.955 255.116 128.803 255.116C127.747 255.116 126.895 255.428 126.247 256.052C125.599 256.676 125.275 257.408 125.275 258.248C125.275 258.872 125.407 259.484 125.671 260.084C125.959 260.684 126.415 261.296 127.039 261.92L143.419 278.264C143.803 278.648 144.019 279.008 144.067 279.344C144.115 279.68 143.947 280.04 143.563 280.424C142.795 281.192 142.027 281.192 141.259 280.424L124.699 263.9C123.883 263.06 123.259 262.184 122.827 261.272C122.395 260.336 122.179 259.352 122.179 258.32C122.179 257.168 122.467 256.136 123.043 255.224C123.619 254.288 124.411 253.556 125.419 253.028C126.427 252.5 127.555 252.236 128.803 252.236C130.099 252.236 131.239 252.512 132.223 253.064C133.231 253.616 134.023 254.372 134.599 255.332C135.175 256.292 135.463 257.372 135.463 258.572C135.463 259.508 135.295 260.36 134.959 261.128C134.647 261.896 134.155 262.652 133.483 263.396C132.811 264.116 131.935 264.908 130.855 265.772L128.011 268.04C127.195 268.688 126.463 269.348 125.815 270.02C125.167 270.692 124.651 271.388 124.267 272.108C123.907 272.804 123.727 273.548 123.727 274.34C123.727 275.684 124.099 276.704 124.843 277.4C125.587 278.072 126.631 278.408 127.975 278.408C129.415 278.408 130.663 278.084 131.719 277.436C132.799 276.764 133.891 275.852 134.995 274.7L140.251 269.156C140.611 268.772 140.947 268.532 141.259 268.436C141.571 268.34 141.919 268.472 142.303 268.832C142.687 269.192 142.879 269.564 142.879 269.948C142.903 270.332 142.735 270.728 142.375 271.136L137.119 276.68C135.871 278.096 134.515 279.26 133.051 280.172C131.587 281.06 129.895 281.504 127.975 281.504ZM171.802 281.36C169.858 281.36 168.034 281 166.33 280.28C164.65 279.536 163.174 278.516 161.902 277.22C160.654 275.9 159.67 274.364 158.95 272.612C158.254 270.86 157.906 268.964 157.906 266.924C157.906 264.908 158.254 263.036 158.95 261.308C159.67 259.556 160.654 258.032 161.902 256.736C163.174 255.416 164.65 254.384 166.33 253.64C168.01 252.896 169.834 252.524 171.802 252.524C173.65 252.524 175.234 252.764 176.554 253.244C177.898 253.724 179.242 254.516 180.586 255.62C180.778 255.764 180.922 255.92 181.018 256.088C181.138 256.232 181.21 256.388 181.234 256.556C181.282 256.7 181.306 256.88 181.306 257.096C181.306 257.552 181.138 257.936 180.802 258.248C180.49 258.56 180.094 258.728 179.614 258.752C179.158 258.776 178.726 258.62 178.318 258.284C177.43 257.516 176.506 256.928 175.546 256.52C174.61 256.112 173.362 255.908 171.802 255.908C170.386 255.908 169.054 256.196 167.806 256.772C166.558 257.348 165.454 258.14 164.494 259.148C163.558 260.156 162.826 261.332 162.298 262.676C161.77 263.996 161.506 265.412 161.506 266.924C161.506 268.46 161.77 269.9 162.298 271.244C162.826 272.564 163.558 273.728 164.494 274.736C165.454 275.744 166.558 276.536 167.806 277.112C169.054 277.664 170.386 277.94 171.802 277.94C173.026 277.94 174.178 277.736 175.258 277.328C176.362 276.896 177.418 276.308 178.426 275.564C178.858 275.252 179.278 275.12 179.686 275.168C180.118 275.192 180.478 275.36 180.766 275.672C181.054 275.96 181.198 276.368 181.198 276.896C181.198 277.136 181.15 277.376 181.054 277.616C180.982 277.832 180.838 278.036 180.622 278.228C179.35 279.284 177.97 280.076 176.482 280.604C174.994 281.108 173.434 281.36 171.802 281.36ZM181.198 276.896L177.598 276.176V269.732H172.63C172.102 269.732 171.658 269.576 171.298 269.264C170.938 268.952 170.758 268.556 170.758 268.076C170.758 267.596 170.938 267.2 171.298 266.888C171.658 266.576 172.102 266.42 172.63 266.42H179.362C179.914 266.42 180.358 266.6 180.694 266.96C181.03 267.296 181.198 267.74 181.198 268.292V276.896ZM193.593 281.144C191.841 281.144 190.269 280.712 188.877 279.848C187.485 278.96 186.381 277.772 185.565 276.284C184.773 274.772 184.377 273.068 184.377 271.172C184.377 269.276 184.809 267.572 185.673 266.06C186.561 264.548 187.749 263.36 189.237 262.496C190.749 261.608 192.441 261.164 194.313 261.164C196.185 261.164 197.865 261.608 199.353 262.496C200.841 263.36 202.017 264.548 202.881 266.06C203.769 267.572 204.213 269.276 204.213 271.172H202.809C202.809 273.068 202.401 274.772 201.585 276.284C200.793 277.772 199.701 278.96 198.309 279.848C196.917 280.712 195.345 281.144 193.593 281.144ZM194.313 277.904C195.537 277.904 196.629 277.616 197.589 277.04C198.549 276.44 199.305 275.636 199.857 274.628C200.409 273.596 200.685 272.444 200.685 271.172C200.685 269.876 200.409 268.724 199.857 267.716C199.305 266.684 198.549 265.88 197.589 265.304C196.629 264.704 195.537 264.404 194.313 264.404C193.113 264.404 192.021 264.704 191.037 265.304C190.077 265.88 189.309 266.684 188.733 267.716C188.181 268.724 187.905 269.876 187.905 271.172C187.905 272.444 188.181 273.596 188.733 274.628C189.309 275.636 190.077 276.44 191.037 277.04C192.021 277.616 193.113 277.904 194.313 277.904ZM202.377 281.036C201.849 281.036 201.405 280.868 201.045 280.532C200.709 280.172 200.541 279.728 200.541 279.2V273.692L201.225 269.876L204.213 271.172V279.2C204.213 279.728 204.033 280.172 203.673 280.532C203.337 280.868 202.905 281.036 202.377 281.036ZM211.442 268.688C211.442 267.248 211.79 265.964 212.486 264.836C213.206 263.684 214.166 262.772 215.366 262.1C216.566 261.428 217.886 261.092 219.326 261.092C220.766 261.092 221.834 261.332 222.53 261.812C223.25 262.268 223.526 262.82 223.358 263.468C223.286 263.804 223.142 264.068 222.926 264.26C222.734 264.428 222.506 264.536 222.242 264.584C221.978 264.632 221.69 264.62 221.378 264.548C219.842 264.236 218.462 264.212 217.238 264.476C216.014 264.74 215.042 265.232 214.322 265.952C213.626 266.672 213.278 267.584 213.278 268.688H211.442ZM211.478 281C210.902 281 210.458 280.856 210.146 280.568C209.834 280.256 209.678 279.8 209.678 279.2V263.108C209.678 262.532 209.834 262.088 210.146 261.776C210.458 261.464 210.902 261.308 211.478 261.308C212.078 261.308 212.522 261.464 212.81 261.776C213.122 262.064 213.278 262.508 213.278 263.108V279.2C213.278 279.776 213.122 280.22 212.81 280.532C212.522 280.844 212.078 281 211.478 281ZM234.672 281.144C232.8 281.144 231.108 280.712 229.596 279.848C228.108 278.96 226.92 277.76 226.032 276.248C225.168 274.736 224.736 273.032 224.736 271.136C224.736 269.24 225.132 267.548 225.924 266.06C226.74 264.548 227.844 263.36 229.236 262.496C230.628 261.608 232.2 261.164 233.952 261.164C235.368 261.164 236.676 261.464 237.876 262.064C239.076 262.64 240.084 263.432 240.9 264.44V254.72C240.9 254.168 241.068 253.724 241.404 253.388C241.764 253.052 242.208 252.884 242.736 252.884C243.288 252.884 243.732 253.052 244.068 253.388C244.404 253.724 244.572 254.168 244.572 254.72V271.136C244.572 273.032 244.128 274.736 243.24 276.248C242.376 277.76 241.2 278.96 239.712 279.848C238.224 280.712 236.544 281.144 234.672 281.144ZM234.672 277.904C235.896 277.904 236.988 277.616 237.948 277.04C238.908 276.44 239.664 275.624 240.216 274.592C240.768 273.56 241.044 272.408 241.044 271.136C241.044 269.84 240.768 268.688 240.216 267.68C239.664 266.672 238.908 265.88 237.948 265.304C236.988 264.704 235.896 264.404 234.672 264.404C233.472 264.404 232.38 264.704 231.396 265.304C230.436 265.88 229.668 266.672 229.092 267.68C228.54 268.688 228.264 269.84 228.264 271.136C228.264 272.408 228.54 273.56 229.092 274.592C229.668 275.624 230.436 276.44 231.396 277.04C232.38 277.616 233.472 277.904 234.672 277.904ZM260.308 281.144C258.316 281.144 256.54 280.724 254.98 279.884C253.444 279.02 252.232 277.844 251.344 276.356C250.48 274.844 250.048 273.116 250.048 271.172C250.048 269.204 250.456 267.476 251.272 265.988C252.112 264.476 253.264 263.3 254.728 262.46C256.192 261.596 257.872 261.164 259.768 261.164C261.64 261.164 263.248 261.584 264.592 262.424C265.936 263.24 266.956 264.38 267.652 265.844C268.372 267.284 268.732 268.952 268.732 270.848C268.732 271.304 268.576 271.688 268.264 272C267.952 272.288 267.556 272.432 267.076 272.432H252.568V269.552H266.968L265.492 270.56C265.468 269.36 265.228 268.292 264.772 267.356C264.316 266.396 263.668 265.64 262.828 265.088C261.988 264.536 260.968 264.26 259.768 264.26C258.4 264.26 257.224 264.56 256.24 265.16C255.28 265.76 254.548 266.588 254.044 267.644C253.54 268.676 253.288 269.852 253.288 271.172C253.288 272.492 253.588 273.668 254.188 274.7C254.788 275.732 255.616 276.548 256.672 277.148C257.728 277.748 258.94 278.048 260.308 278.048C261.052 278.048 261.808 277.916 262.576 277.652C263.368 277.364 264.004 277.04 264.484 276.68C264.844 276.416 265.228 276.284 265.636 276.284C266.068 276.26 266.44 276.38 266.752 276.644C267.16 277.004 267.376 277.4 267.4 277.832C267.424 278.264 267.232 278.636 266.824 278.948C266.008 279.596 264.988 280.124 263.764 280.532C262.564 280.94 261.412 281.144 260.308 281.144ZM290.048 281.036C289.52 281.036 289.076 280.868 288.716 280.532C288.38 280.172 288.212 279.728 288.212 279.2V270.344C288.212 268.976 287.96 267.86 287.456 266.996C286.952 266.132 286.268 265.496 285.404 265.088C284.564 264.656 283.592 264.44 282.488 264.44C281.48 264.44 280.568 264.644 279.752 265.052C278.936 265.46 278.288 266.012 277.808 266.708C277.328 267.38 277.088 268.16 277.088 269.048H274.82C274.82 267.536 275.18 266.192 275.9 265.016C276.644 263.816 277.652 262.868 278.924 262.172C280.196 261.476 281.624 261.128 283.208 261.128C284.864 261.128 286.34 261.488 287.636 262.208C288.956 262.904 289.988 263.936 290.732 265.304C291.5 266.672 291.884 268.352 291.884 270.344V279.2C291.884 279.728 291.704 280.172 291.344 280.532C291.008 280.868 290.576 281.036 290.048 281.036ZM275.252 281.036C274.724 281.036 274.28 280.868 273.92 280.532C273.584 280.172 273.416 279.728 273.416 279.2V263.144C273.416 262.592 273.584 262.148 273.92 261.812C274.28 261.476 274.724 261.308 275.252 261.308C275.804 261.308 276.248 261.476 276.584 261.812C276.92 262.148 277.088 262.592 277.088 263.144V279.2C277.088 279.728 276.92 280.172 276.584 280.532C276.248 280.868 275.804 281.036 275.252 281.036Z" fill="#424651"/>
<path d="M84.957 50.1965C85.1757 50.0582 85.4764 49.6674 85.6677 49.4777C90.2859 44.8778 95.3489 40.8321 100.857 37.3406C108.257 32.6502 116.459 28.7749 124.885 26.3469C134.769 23.4986 144.761 22.3419 154.862 22.8769C174.599 23.922 192.175 30.5448 207.591 42.7451C220.278 52.7837 229.834 66.0479 235.813 81.0906C235.833 81.1408 235.867 81.184 235.912 81.2143C235.957 81.2447 236.01 81.261 236.064 81.261H259.937C259.947 81.2609 259.957 81.2586 259.966 81.2541C259.975 81.2497 259.982 81.2433 259.988 81.2354C259.994 81.2276 259.998 81.2186 259.999 81.209C260.001 81.1995 260 81.1898 259.997 81.1806C254.203 62.3914 243.917 45.4529 229.73 31.8494C221.711 24.16 212.902 17.808 203.301 12.7932C177.45 -0.710612 147.816 -3.40076 119.617 4.13906C108.829 7.02539 98.1634 12.0182 88.8113 17.958C72.188 28.5144 58.8482 43.176 49.3965 60.5615C40.0815 77.6961 35.6386 97.3296 36.0229 116.788C36.3413 133.024 39.9662 148.46 46.8977 163.094C64.5308 200.324 100.773 225.434 141.917 228.448C158.028 229.628 173.695 227.536 188.915 222.173C189.928 221.816 190.932 221.442 191.928 221.051C207.34 214.994 220.826 206.015 232.386 194.114C239.353 186.941 245.328 179.019 250.311 170.346C250.582 169.875 250.822 169.403 251.032 168.93C251.039 168.915 251.042 168.898 251.041 168.882C251.039 168.865 251.034 168.849 251.025 168.836C251.016 168.822 251.004 168.81 250.99 168.802C250.975 168.794 250.959 168.79 250.942 168.79H224.208C224.142 168.79 224.088 168.817 224.047 168.872C215.964 179.685 206.021 188.333 194.221 194.817C193.284 195.331 192.333 195.826 191.368 196.302C176.79 203.497 161.336 206.669 145.005 205.818C143.933 205.763 142.865 205.682 141.799 205.577C124.854 203.904 109.573 198.02 95.9556 187.926C84.957 179.772 75.9379 169.126 69.4577 157.063C64.6723 148.156 61.5116 138.698 59.9754 128.688C57.3335 111.481 59.4255 93.4093 66.5263 77.5193C71.0501 67.3965 77.1395 58.3334 84.7946 50.3299C84.8428 50.2785 84.897 50.234 84.957 50.1965Z" fill="#424651"/>
<path d="M98.6168 45.625C98.5482 45.6507 98.5016 45.6732 98.4769 45.6925C79.4529 60.1612 67.0634 81.5988 64.7833 105.464C64.6825 106.515 64.5951 107.583 64.5212 108.669C63.5489 122.991 65.9694 136.62 71.7828 149.555C74.1776 154.882 77.1915 160.092 80.8245 165.185C81.3519 165.924 81.9469 166.627 82.529 167.327C82.5634 167.367 82.6121 167.393 82.6651 167.399C82.7181 167.405 82.7713 167.39 82.8136 167.357C88.8081 162.709 95.2229 158.74 102.058 155.45C102.081 155.439 102.101 155.423 102.116 155.403C102.132 155.383 102.143 155.36 102.148 155.335C102.154 155.31 102.153 155.285 102.147 155.26C102.141 155.236 102.129 155.213 102.113 155.194C88.9818 139.57 83.9858 118.743 89.1345 98.8636C94.1659 79.4344 107.657 63.5251 126.279 55.8534C155.361 43.8739 187.68 54.8934 204.325 81.0906C204.358 81.1409 204.402 81.1822 204.454 81.2109C204.506 81.2395 204.564 81.2546 204.623 81.2546H229.833C229.857 81.2548 229.881 81.2489 229.902 81.2375C229.923 81.2262 229.941 81.2097 229.955 81.1895C229.968 81.1694 229.976 81.1463 229.978 81.1223C229.98 81.0983 229.976 81.0741 229.966 81.052C222.841 64.5509 211.819 51.4663 196.901 41.798C195.999 41.2138 195.086 40.6526 194.163 40.1145C180.185 31.9765 164.29 27.778 148.027 28.2267C130.096 28.7203 112.999 34.7165 98.6666 45.5623C98.6538 45.5719 98.6457 45.5832 98.6425 45.5961C98.6393 45.61 98.6307 45.6196 98.6168 45.625Z" fill="#424651"/>
<path d="M140.291 86.2538C140.62 92.1149 144.201 97.2074 149.157 100.179C149.217 100.215 149.286 100.234 149.356 100.234C149.426 100.234 149.494 100.214 149.553 100.177C153.178 97.938 155.768 94.8083 157.323 90.7884C158.641 87.3794 158.929 84.2037 158.012 80.7272C156.609 75.3994 153.718 70.9882 149.339 67.4935C149.292 67.456 149.246 67.4571 149.201 67.4968C143.806 72.0795 139.886 79.063 140.291 86.2538Z" fill="#679436"/>
<path d="M123.946 91.2226C124.372 103.861 133.222 115.366 146.822 114.493C147.099 114.476 147.261 114.329 147.292 114.041C147.481 112.261 147.425 110.53 147.125 108.849C145.165 97.8619 134.472 91.5667 124.06 91.1084C124.045 91.1077 124.03 91.1102 124.015 91.1157C124.001 91.1212 123.988 91.1296 123.978 91.1403C123.967 91.151 123.959 91.1639 123.953 91.1781C123.948 91.1922 123.945 91.2074 123.946 91.2226Z" fill="#679436"/>
<path d="M153.394 114.477C167.044 115.463 175.683 103.681 176.192 91.2386C176.193 91.2218 176.19 91.2051 176.184 91.1894C176.178 91.1738 176.169 91.1596 176.157 91.1478C176.145 91.136 176.131 91.1268 176.115 91.1209C176.1 91.1149 176.083 91.1123 176.067 91.1132C163.714 91.6374 151.629 100.374 152.841 113.998C152.877 114.392 153.036 114.451 153.394 114.477Z" fill="#679436"/>
<path d="M198.482 157.761C204.796 161.17 210.705 165.163 216.21 169.742C216.227 169.756 216.247 169.767 216.268 169.774C216.29 169.78 216.312 169.783 216.335 169.781C216.357 169.778 216.379 169.772 216.399 169.761C216.419 169.751 216.437 169.737 216.451 169.719C221.745 163.419 226.171 156.336 229.449 148.766C235.127 135.65 237.425 121.855 236.342 107.381C236.321 107.095 236.286 106.854 236.239 106.659C236.225 106.607 236.191 106.58 236.138 106.58L186.21 106.59C186.18 106.59 186.151 106.602 186.129 106.624C186.108 106.646 186.096 106.675 186.096 106.706V128.288C186.096 128.31 186.105 128.33 186.12 128.345C186.136 128.36 186.156 128.368 186.178 128.368H211.865C211.899 128.368 211.932 128.375 211.963 128.388C211.994 128.401 212.022 128.42 212.046 128.443C212.07 128.467 212.089 128.495 212.101 128.526C212.114 128.557 212.121 128.591 212.121 128.624C212.122 128.683 212.111 128.758 212.089 128.848C209.537 139.465 204.616 148.811 197.324 156.888C197.309 156.905 197.297 156.926 197.29 156.948C197.284 156.971 197.282 156.994 197.286 157.018C197.289 157.041 197.298 157.063 197.312 157.083C197.325 157.102 197.342 157.118 197.363 157.13C197.733 157.347 198.106 157.557 198.482 157.761Z" fill="#424651"/>
<path d="M123.942 113.413C124.111 120.065 126.978 126.868 131.778 131.464C135.703 135.221 140.488 136.97 146.134 136.709C146.438 136.695 146.742 136.654 147.048 136.585C147.1 136.573 147.144 136.547 147.178 136.506C147.299 136.362 147.362 136.206 147.368 136.04C147.593 129.22 145.246 123.669 140.326 119.386C135.903 115.535 129.9 113.493 124.052 113.303C124.037 113.303 124.023 113.305 124.009 113.311C123.996 113.316 123.984 113.324 123.974 113.334C123.963 113.345 123.955 113.357 123.95 113.37C123.945 113.384 123.942 113.398 123.942 113.413Z" fill="#679436"/>
<path d="M175.536 113.339C163.262 113.956 151.796 122.792 152.825 136.141C152.846 136.42 153.023 136.646 153.295 136.666C159.564 137.088 164.848 135.077 169.148 130.632C173.586 126.046 175.93 119.785 176.21 113.459C176.213 113.399 176.189 113.356 176.136 113.329C175.972 113.244 175.66 113.332 175.536 113.339Z" fill="#679436"/>
<path d="M85.9443 171.474C104.608 192.223 131.622 203.067 159.526 200.059C180.006 197.851 198.776 188.515 212.97 173.652C212.996 173.625 213.017 173.592 213.03 173.556C213.043 173.52 213.048 173.482 213.046 173.444C213.044 173.406 213.033 173.368 213.016 173.335C212.998 173.301 212.974 173.271 212.944 173.247C195.119 158.754 174.651 151.018 151.539 150.039C151.497 150.038 151.458 150.02 151.429 149.99C151.4 149.96 151.384 149.92 151.384 149.878V138.346C151.384 138.306 151.368 138.267 151.34 138.239C151.312 138.211 151.273 138.195 151.233 138.195L147.472 138.196C147.383 138.196 147.339 138.24 147.339 138.328V149.795C147.339 149.845 147.319 149.892 147.284 149.928C147.249 149.963 147.202 149.984 147.152 149.985C124.414 150.34 104.036 157.318 86.0183 170.917C85.7899 171.089 85.7653 171.274 85.9443 171.474Z" fill="#679436"/>
</svg>
