<svg width="34" height="35" viewBox="0 0 34 35" fill="none" xmlns="http://www.w3.org/2000/svg">
<path d="M23.5384 33.0268V28.5804C23.5961 27.8416 23.497 27.099 23.2476 26.4018C22.9983 25.7046 22.6044 25.0688 22.0922 24.5368C26.923 23.9946 31.9999 22.1509 31.9999 13.692C31.9995 11.5289 31.1733 9.44884 29.6922 7.88223C30.3935 5.98981 30.344 3.89807 29.5538 2.04151C29.5538 2.04151 27.7384 1.49927 23.5384 4.33442C20.012 3.37354 16.2955 3.37354 12.7692 4.33442C8.56915 1.49927 6.75377 2.04151 6.75377 2.04151C5.96358 3.89807 5.91399 5.98981 6.61531 7.88223C5.12319 9.46046 4.29611 11.5593 4.30761 13.7384C4.30761 22.1354 9.38454 23.9791 14.2153 24.5833C13.7091 25.11 13.3188 25.7381 13.0696 26.4268C12.8205 27.1154 12.7181 27.8492 12.7692 28.5804V33.0268" stroke="#181715" stroke-width="2.30769" stroke-linecap="round" stroke-linejoin="round"/>
<path d="M12.7692 29.9281C8.15385 31.4355 4.30769 29.9281 2 25.2803" stroke="#181715" stroke-width="2.30769" stroke-linecap="round" stroke-linejoin="round"/>
</svg>
