<svg width="36" height="30" viewBox="0 0 36 30" fill="none" xmlns="http://www.w3.org/2000/svg">
<path d="M6.9345 6.58009L6.93502 6.58037L17.5888 12.3165L17.9998 12.5378L18.4108 12.3165L29.0646 6.58037L29.0651 6.58009C29.1311 6.54447 29.2053 6.52661 29.2803 6.52824C29.3553 6.52987 29.4286 6.55094 29.493 6.58938C29.5574 6.62783 29.6108 6.68233 29.6478 6.74757C29.6848 6.81277 29.7043 6.88645 29.7043 6.96142C29.7043 6.96147 29.7043 6.96152 29.7043 6.96157V23.4345C29.7043 23.5495 29.6587 23.6597 29.5774 23.741C29.4961 23.8223 29.3858 23.868 29.2708 23.868C29.1559 23.868 29.0456 23.8223 28.9643 23.741C28.883 23.6597 28.8373 23.5495 28.8373 23.4345V9.13934V7.68789L27.5593 8.37594L18.2061 13.4115L18.2048 13.4122C18.0771 13.4812 17.9224 13.4812 17.7948 13.4122L17.7935 13.4115L8.44023 8.37594L7.16223 7.68789V9.13934L7.16223 23.4345C7.16223 23.5495 7.11656 23.6597 7.03526 23.741C6.95397 23.8223 6.8437 23.868 6.72873 23.868C6.61376 23.868 6.50349 23.8223 6.4222 23.741C6.3409 23.6597 6.29523 23.5495 6.29523 23.4345V6.96157C6.29523 6.96152 6.29523 6.96147 6.29523 6.96142C6.29526 6.88645 6.31475 6.81277 6.35177 6.74757C6.38882 6.68233 6.44216 6.62783 6.50659 6.58938C6.57101 6.55094 6.64431 6.52987 6.71931 6.52824C6.79432 6.52661 6.86846 6.54447 6.9345 6.58009Z" fill="#EEEEEE" stroke="#181715" stroke-width="1.73401"/>
<path d="M27.1307 1.27436L27.1304 1.27433C21.0555 0.731231 14.9444 0.731231 8.86959 1.27433L8.86919 1.27436L6.23727 1.50843C6.23723 1.50843 6.23718 1.50843 6.23714 1.50844C6.23708 1.50844 6.23702 1.50845 6.23696 1.50845C5.06019 1.6136 3.95319 2.11231 3.09473 2.92406C2.2362 3.73587 1.67637 4.81337 1.50565 5.98255L1.50563 5.98272C0.654135 11.8065 0.65413 17.7232 1.50561 23.547L27.1307 1.27436ZM27.1307 1.27436L29.7612 1.50845C30.9383 1.61322 32.0458 2.1118 32.9046 2.92364C33.7635 3.73549 34.3235 4.81317 34.4943 5.98258L34.4943 5.98272C35.3458 11.8065 35.3458 17.7232 34.4943 23.547C34.3233 24.7159 33.7633 25.7931 32.9048 26.6046C32.0463 27.4161 30.9394 27.9146 29.7627 28.0196L29.7624 28.0197L27.1321 28.2555C21.0555 28.7988 14.9445 28.7988 8.86787 28.2555L6.23936 28.0197L6.23872 28.0196M27.1307 1.27436L6.23872 28.0196M6.23872 28.0196C5.06178 27.9149 3.95449 27.4165 3.09569 26.605C2.23691 25.7935 1.67673 24.7162 1.50563 23.5471L6.23872 28.0196ZM8.94753 2.13782L8.94733 2.13783L6.31755 2.3736C6.31739 2.37361 6.31722 2.37363 6.31706 2.37364C6.31699 2.37365 6.31691 2.37365 6.31683 2.37366C5.3343 2.46109 4.40989 2.8771 3.69286 3.55453C2.97565 4.23213 2.50781 5.13172 2.36489 6.10799L2.36487 6.10814C1.52552 11.8488 1.52552 17.681 2.36487 23.4217L2.36489 23.4218C2.5078 24.3981 2.97565 25.2977 3.69286 25.9753C4.41006 26.6529 5.33474 27.0689 6.31755 27.1562L8.94733 27.392L8.94751 27.392C14.9708 27.9306 21.0326 27.9306 27.0559 27.392L27.0561 27.392L29.6859 27.1562C30.6687 27.0689 31.5934 26.6529 32.3106 25.9753C33.0278 25.2977 33.4956 24.3981 33.6385 23.4218L33.6385 23.4217C34.478 17.681 34.478 11.8488 33.6385 6.10813L33.6385 6.10799C33.4956 5.13172 33.0278 4.23213 32.3106 3.55453C31.5935 2.8771 30.6691 2.46109 29.6866 2.37366C29.6865 2.37366 29.6865 2.37365 29.6865 2.37365C29.6863 2.37363 29.6861 2.37361 29.6859 2.3736L27.0561 2.13783L27.0559 2.13782C21.0318 1.5992 14.9716 1.5992 8.94753 2.13782Z" fill="#EEEEEE" stroke="#181715" stroke-width="1.73401"/>
</svg>
