<svg width="33" height="34" viewBox="0 0 33 34" fill="none" xmlns="http://www.w3.org/2000/svg">
<path d="M9.85714 13.8451V24.9165M23.1429 24.9165V19.3808C23.1429 18.2063 22.6763 17.0798 21.8458 16.2493C21.0152 15.4188 19.8888 14.9522 18.7143 14.9522C17.5398 14.9522 16.4133 15.4188 15.5828 16.2493C14.7523 17.0798 14.2857 18.2063 14.2857 19.3808V24.9165V13.8451M8.75 10.5236H10.9643M3.21429 1.6665H29.7857C30.373 1.6665 30.9362 1.89979 31.3515 2.31505C31.7667 2.73031 32 3.29352 32 3.88079V30.4522C32 31.0395 31.7667 31.6027 31.3515 32.018C30.9362 32.4332 30.373 32.6665 29.7857 32.6665H3.21429C2.62702 32.6665 2.06381 32.4332 1.64855 32.018C1.23329 31.6027 1 31.0395 1 30.4522V3.88079C1 3.29352 1.23329 2.73031 1.64855 2.31505C2.06381 1.89979 2.62702 1.6665 3.21429 1.6665Z" stroke="#181715" stroke-width="2"/>
</svg>
