<svg width="33" height="33" viewBox="0 0 33 33" fill="none" xmlns="http://www.w3.org/2000/svg">
<path d="M16.2278 2.00241C8.18709 2.00241 1.47244 8.72912 1.47244 16.7626C1.47554 19.6706 2.33506 22.5133 3.94372 24.9359L1.46521 31.53L9.75665 30.0303C11.7731 31.0098 13.986 31.5176 16.2278 31.5155C24.2757 31.5203 31 24.8033 31 16.765C31 8.73635 24.2733 1.99759 16.2278 2.00241Z" stroke="#181715" stroke-width="2.411" stroke-linecap="round" stroke-linejoin="round"/>
<path d="M17.0405 23.268C19.0392 24.5482 21.1199 23.6152 22.5713 22.5326C23.5719 21.7852 23.5405 20.3458 22.6846 19.4345L20.9969 17.6383C20.358 18.2772 19.1091 18.5955 18.2436 18.3302C16.3799 17.7637 15.5987 16.7944 14.9646 15.8059C14.2389 14.6728 15.061 12.9802 15.7 12.3413L13.8194 10.6247C13.0262 9.90138 11.8231 9.78083 11.1311 10.6006C9.76165 12.2232 8.91298 14.6896 9.91837 16.2592C11.7266 19.0777 14.222 21.4597 17.0405 23.268Z" stroke="#181715" stroke-width="2.411" stroke-linecap="round" stroke-linejoin="round"/>
</svg>
