<svg width="16" height="16" viewBox="0 0 16 16" fill="none" xmlns="http://www.w3.org/2000/svg">
<path d="M0 8C0 5.19974 0 3.79961 0.544967 2.73005C1.02433 1.78924 1.78924 1.02433 2.73005 0.544967C3.79961 0 5.19974 0 8 0V0C10.8003 0 12.2004 0 13.27 0.544967C14.2108 1.02433 14.9757 1.78924 15.455 2.73005C16 3.79961 16 5.19974 16 8V8C16 10.8003 16 12.2004 15.455 13.27C14.9757 14.2108 14.2108 14.9757 13.27 15.455C12.2004 16 10.8003 16 8 16H2C1.05719 16 0.585786 16 0.292893 15.7071C0 15.4142 0 14.9428 0 14V8Z" fill="#DDAA01"/>
<path d="M12.4065 9.376C12.4065 9.696 12.3852 9.984 12.3425 10.24H5.8625C5.91583 10.88 6.13983 11.3813 6.5345 11.744C6.92917 12.1067 7.4145 12.288 7.9905 12.288C8.8225 12.288 9.4145 11.9307 9.7665 11.216H12.1825C11.9265 12.0693 11.4358 12.7733 10.7105 13.328C9.98517 13.872 9.0945 14.144 8.0385 14.144C7.18517 14.144 6.41717 13.9573 5.7345 13.584C5.0625 13.2 4.5345 12.6613 4.1505 11.968C3.77717 11.2747 3.5905 10.4747 3.5905 9.568C3.5905 8.65067 3.77717 7.84533 4.1505 7.152C4.52383 6.45867 5.0465 5.92533 5.7185 5.552C6.3905 5.17867 7.16383 4.992 8.0385 4.992C8.88117 4.992 9.63317 5.17333 10.2945 5.536C10.9665 5.89867 11.4838 6.416 11.8465 7.088C12.2198 7.74933 12.4065 8.512 12.4065 9.376ZM10.0865 8.736C10.0758 8.16 9.86783 7.70133 9.4625 7.36C9.05717 7.008 8.56117 6.832 7.9745 6.832C7.41983 6.832 6.9505 7.00267 6.5665 7.344C6.19317 7.67467 5.96383 8.13867 5.8785 8.736H10.0865Z" fill="#181715"/>
</svg>
