<svg width="424" height="187" viewBox="0 0 424 187" fill="none" xmlns="http://www.w3.org/2000/svg">
<path d="M39.2 9C40.9 5.7 42.7 3.9 46 2.2C48.5 1 52.3 0 54.5 0C56.7 0 60.3 0.5 62.5 1.1C64.7 1.8 67.9 3.7 69.6 5.4C71.3 7.1 73.2 10.3 73.9 12.5C74.5 14.7 75 18.2 75 24H59V20.8C59 19 58.6 16.9 58.2 16.2C57.8 15.5 56.4 15 55 15.2C53 15.4 52.5 16.1 52.2 18.8C52 21.6 53.1 23.2 62.3 32.8C69.1 39.8 73.1 44.9 74.1 47.5C74.9 49.7 75.5 55.1 75.5 59.5C75.4 66 75 68.4 72.9 72.5C71.3 75.6 69.1 78.3 66.9 79.5C64.4 81 61.7 81.5 56.5 81.5C50.9 81.4 48.6 80.9 45.2 79C42.3333 77.3333 40.2667 75.1667 39 72.5C37.9 70 36.9 65.1 36 51H52V57C52 60.3 52.5 63.9 53 65C53.5 66.1 54.8 67 55.8 67C56.8 67 58.1 66.4 58.8 65.8C59.5 65.1 60 63 60 61.3C60 59.5 59.3 56.4 58.5 54.5C57.7 52.6 53.2 47.1 48.6 42.3C44 37.4 39.5 31.9 38.5 30C37.3 27.6 36.8 24.4 36.8 20C36.9 15.4 37.6 12.2 39.2 9Z" fill="#181715"/>
<path d="M0 81V41V1H32V16H16V32H31V47H16V65L32.5 65.5L33 81H0Z" fill="#181715"/>
<path d="M78 16V8.5V1H114V16H104V81H88V16H78Z" fill="#181715"/>
<path d="M118 81V41V1H150V16L134.5 16.5L134 32H149V47H134V65H151V81H118Z" fill="#181715"/>
<path d="M157 81V41V1H170.2C180.9 1 184.2 1.3 186.9 2.8C188.8 3.7 191.2 5.6 192.3 7C193.5 8.7 194.3 11.9 194.7 16.5C195 20.4 195 25.2 194.6 27.3C194.3 29.5 192.8 32.2 191 34C188.1 36.9 188.1 37 190 38C191.1 38.6 192.7 40.5 193.6 42.3C194.5 44 195.5 48.7 195.8 52.5C196 56.4 195.7 62 195.1 65C194.4 68 193.1 72 192.2 73.9C191.1 76.2 189.1 78 186.5 79.2C183.3 80.6 179.8 81 157 81Z" fill="#181715"/>
<path d="M203.1 37.5C204.8 18.8 206.4 2.9 206.6 2.3C206.8 1.3 210.5 1 220.5 1C230.6 1 234 1.3 234 2.3C234 2.9 235.6 19.8 237.5 39.8C239.4 59.7 241 77.1 241 78.5C241 80.9 240.8 81 226 81V77.8C226 76 225.7 73 225.3 71.2C224.5 68.1 224.3 68 215 68V81H198.5L199.2 76.3C199.6 73.6 201.3 56.2 203.1 37.5Z" fill="#181715"/>
<path d="M247 81V41V1H255C262.5 1 263 1.1 263.5 3.3C263.8 4.5 265.1 11.4 266.5 18.5C267.9 25.7 269.3 31.7 269.6 32C269.8 32.3 270 25.4 270 1H286V81H270.5L267.7 67.3C266.1 59.7 264.7 52.7 264.4 51.8C264.2 50.8 263.6 50 263 50C262.4 50 262 55.8 262 81H247Z" fill="#181715"/>
<path d="M86.6 93.9C88.2 92.4 90.8 90.8 92.5 90.2C94.2 89.6 97.5 89.1 100 89.1C102.5 89.1 106.3 89.7 108.5 90.6C110.7 91.4 113.4 92.8 114.4 93.8C115.4 94.7 117.1 97.3 118.1 99.5C119.7 103 120 106.4 120 129.5C120 155 120 155.6 117.6 160.5C116.3 163.3 114 166.3 112.6 167.3C111.2 168.2 107.9 169.5 105.2 170.1C101.7 171 99.2 171 95.2 170.1C91.6 169.3 89 168 86.7 165.7C85 163.9 82.9 160.7 82.3 158.5C81.4 155.8 81 146.3 81 128.8C81 109.1 81.3 102.2 82.4 99.8C83.1 98 85 95.3 86.6 93.9Z" fill="#181715"/>
<path d="M0 170V130V90H32V105H16V118H31L30.5 133.5L16 134V170H0Z" fill="#181715"/>
<path d="M37 170V130V90H51.5C63.5 90 66.5 90.3 69 91.8C70.7 92.7 72.8 95.1 73.7 97C74.5 98.9 75.5 103.9 75.8 108C76 112.1 75.8 117.3 75.2 119.5C74.6 121.7 72.9 124.5 69 128L74.5 132.8L75 170H59V135L56.5 134C55.1 133.5 53.8 133 53.5 133C53.2 133 53 141.3 53 170H37Z" fill="#181715"/>
<path d="M127 170V130L127.1 89.9L143.5 90.5L146.2 104.5C147.7 112.2 149.4 119 150 119.5C150.7 120.2 151 116 151 90H166V170H150.5L147.5 154.8C145.8 146.5 144 139 143.3 138.1C142.3 136.8 142.1 139.9 142 170H127Z" fill="#181715"/>
<path d="M169.9 105.1V97.6V90.1H205.9V105.1H195.9V170.1H179.9V105.1H169.9Z" fill="#181715"/>
<path d="M236 128.6C242 108.8 247.2 92 247.6 91.2C247.9 90.5 248.7 90.1 249.3 90.3C249.9 90.6 255.2 92.2 260.9 94C266.7 95.8 272.7 97.9 274.2 98.7C275.7 99.4 277.8 101.5 278.9 103.3C280.2 105.4 280.9 108.3 280.9 111.6C280.9 114.8 278.6 124 274.3 138.1C270.7 149.9 266.6 161.8 265.1 164.5C263.6 167.2 261.2 170.3 259.6 171.5C257.6 173 255.3 173.6 251.6 173.5C248.5 173.5 242.1 172.1 235.7 170C229.7 168.1 224.9 166.1 224.9 165.6C224.9 165 229.9 148.4 236 128.6Z" fill="#181715"/>
<path d="M298 133.1C303.6 114.6 308.9 97.4 309.7 94.7C310.6 92.1 311.7 90.1 312.3 90.3C312.9 90.6 319.8 92.7 341.8 99.6L340.2 104.6C339.4 107.3 338.3 110.6 337.8 111.8C337.3 113 336.8 114.1 336.7 114.1C336.6 114.1 333.7 113.2 330.4 112.1C327.1 110.9 323.9 110 323.2 110C322.5 110.1 321 113.1 319.9 116.8C318.8 120.5 317.9 123.9 317.9 124.3C317.9 124.7 320.9 125.8 324.6 126.8C328.2 127.8 331.3 128.8 331.5 129.1C331.7 129.3 330.9 132.5 329.8 136.1C328.7 139.6 327.7 142.7 327.6 142.9C327.5 143 324.3 142.2 320.4 141.1C316.6 139.9 313.3 139 313.2 139C313.1 139 311.8 143 310.4 147.8C309 152.6 308 156.6 308.2 156.7C308.3 156.7 311.9 157.9 316.2 159.2C320.5 160.5 323.8 162 323.6 162.6C323.4 163.1 322.4 166.3 321.4 169.6C320.4 172.9 319.5 175.7 319.5 175.9C319.5 176 312.5 174.1 303.9 171.5C295.4 169 288.3 166.8 288.1 166.7C287.9 166.6 292.4 151.5 298 133.1Z" fill="#181715"/>
<path d="M340.5 167.3C340.8 166.9 354.4 155.5 370.8 141.9C387.1 128.3 400.9 117.2 401.4 117.1C402 117.1 404.1 119.8 406.2 123.1C408.3 126.4 409.8 129.2 409.7 129.4C409.6 129.6 401.3 136.2 391.4 144.1C381.5 151.9 373.2 158.5 372.9 158.7C372.7 158.9 372.8 159.3 373.2 159.6C373.6 159.8 383.2 155.3 394.4 149.6C405.7 143.8 415.3 139.1 415.7 139.1C416.1 139.1 418.1 141.8 420.2 145.1C422.3 148.4 423.8 151.2 423.7 151.5C423.6 151.7 407.2 159.6 387.4 169C367.6 178.4 351.4 186.1 351.4 186.1C351.4 186.1 348.9 182.1 345.7 177.1C342.5 172.1 340.2 167.7 340.5 167.3Z" fill="#181715"/>
<path d="M174.3 31C172.1 31 172 30.7 172 22C172 13.3 172.1 13 174.3 13C175.5 13 177.1 13.5 177.8 14.2C178.5 15 179 18.1 179 22C179 25.8 178.5 29 177.8 29.7C177.1 30.4 175.6 31 174.3 31Z" fill="#FFDB67"/>
<path d="M217.3 45.3C217.7 39.9 218.3 32 218.7 27.8C219 23.5 219.7 20 220.1 20C220.6 20 221 20.6 221 21.2C221 21.9 221.4 27.4 222 33.5C222.5 39.6 223.2 46.9 224 55H216.5L217.3 45.3Z" fill="#FFDB67"/>
<path d="M174.3 67C172 67 172 66.7 172 55.5V44H175C177 44 178.333 44.6667 179 46C179.6 47.1 180 51.5 180 55.8C180 61.7 179.6 63.9 178.2 65.3C177.3 66.3 175.5 67.1 174.3 67Z" fill="#FFDB67"/>
<path d="M96.8001 129.4C96.7001 116.2 97.0001 105 97.5001 104.7C98.0001 104.3 99.4001 104 100.7 104C102.3 104 103.2 104.7 103.5 106.2C103.8 107.5 103.9 118.8 103.8 131.4C103.5 151.4 103.3 154.4 101.8 155.4C100.6 156.2 99.8001 156.1 98.5001 155C97.1001 153.7 96.9001 150.3 96.8001 129.4Z" fill="#FFDB67"/>
<path d="M54.2001 119.6C53.4001 119.2 53.0001 116.7 53.1001 111.9V104.9L56.3001 105.2C59.5001 105.5 59.5001 105.5 59.7001 111.7C60.0001 117.4 59.8001 118.1 57.7001 119.1C56.5001 119.7 54.9001 119.9 54.2001 119.6Z" fill="#FFDB67"/>
<path d="M252.1 131.4C255.9 118.8 259.1 108.3 259.1 108.2C259.1 108 259.4 107.9 259.8 107.9C260.2 107.9 261.6 108.6 262.8 109.4C264.1 110.3 265.1 111.6 265.1 112.4C265.1 113.3 262.1 123.5 258.5 135.2C254.9 146.9 251.4 157 250.7 157.7C250.1 158.5 248.4 158.8 246.8 158.5C244.8 158.1 244.2 157.5 244.5 156.2C244.8 155.2 248.2 144.1 252.1 131.4Z" fill="#FFDB67"/>
</svg>
